# xmcd
#
# Track frame offsets:
#	150
#	17275
#	30025
#	43457
#	59580
#	73977
#	88310
#	102447
#	118007
#	134950
#	150677
#	164157
#	178825
#	192240
#	205170
#
# Disc length: 2900 seconds
#
# Revision: 1
# Processed by: cddbd v1.4PL0 Copyright (c) Steve Scherf et al.
# Submitted via: audiograbber 1.81.02
#
DISCID=e40b520f
DTITLE=Los Caminantes - Para Recordar
DYEAR=2000
DGENRE=Latin
TTITLE0=Amor Que Nace
TTITLE1=Con Tinta Del Corazon
TTITLE2=Dame Otra Oportunidad
TTITLE3=Dos Cartas Y Una Flor
TTITLE4=El Dinero
TTITLE5=El Puente Roto
TTITLE6=He Sabido
TTITLE7=La Guitarra Y La Mujer
TTITLE8=Lagrimas Al Recordar
TTITLE9=Mi Niña
TTITLE10=Por Ese Amor
TTITLE11=Solo Los Tontos
TTITLE12=Supe Perder
TTITLE13=Teresita
TTITLE14=Todo Me Gusta De Ti
EXTD=
EXTT0=
EXTT1=
EXTT2=
EXTT3=
EXTT4=
EXTT5=
EXTT6=
EXTT7=
EXTT8=
EXTT9=
EXTT10=
EXTT11=
EXTT12=
EXTT13=
EXTT14=
PLAYORDER=
